<svg version="1.1" id="Layer_1" xmlns="http://www.w3.org/2000/svg" xmlns:xlink="http://www.w3.org/1999/xlink" x="0px" y="0px"
	 width="100%" viewBox="0 0 5000 5000" enable-background="new 0 0 5000 5000" xml:space="preserve">
<path fill="#FE0000" opacity="1.000000" stroke="none" 
	d="
M3300.000000,5004.000000 
	C2200.000000,5004.000000 1102.000000,5004.000000 4.000000,5004.000000 
	C4.000000,3337.333252 4.000000,1670.666626 4.000000,4.000001 
	C1670.666626,4.000000 3337.333252,4.000000 5004.000000,4.000000 
	C5004.000000,1670.666626 5004.000000,3337.333252 5004.000000,5004.000000 
	C4436.666504,5004.000000 3869.333252,5004.000000 3300.000000,5004.000000 
M2422.045410,3999.985840 
	C2433.963623,4000.784668 2445.897705,4002.447754 2457.796875,4002.224854 
	C2497.713379,4001.475830 2537.596924,4003.206543 2577.584229,4000.547852 
	C2612.030518,3998.257080 2646.473389,3995.932373 2680.765869,3992.250732 
	C2707.105957,3989.422607 2733.131836,3983.787598 2759.411865,3980.251709 
	C2807.541748,3973.776367 2854.518555,3961.795898 2901.150146,3949.048340 
	C2946.454590,3936.663330 2991.544434,3922.959473 3034.868652,3904.322510 
	C3044.000732,3900.394531 3053.013916,3896.037354 3062.437744,3892.972656 
	C3082.024170,3886.603027 3101.395264,3879.913574 3118.974121,3868.880615 
	C3121.782227,3867.118164 3124.825195,3865.698242 3127.850098,3864.319092 
	C3147.718994,3855.260254 3168.102051,3847.184082 3187.386475,3837.020996 
	C3217.317627,3821.246338 3246.249756,3803.607422 3275.774414,3787.056885 
	C3303.556152,3771.483887 3329.233398,3752.106445 3355.563232,3734.005127 
	C3402.706055,3701.595703 3445.666748,3663.834473 3489.959229,3627.803711 
	C3504.846436,3615.693604 3519.133545,3602.466553 3531.711914,3588.023193 
	C3540.828613,3577.554688 3553.365723,3570.462158 3560.254639,3558.028564 
	C3580.049072,3542.146973 3594.989502,3521.612793 3612.580811,3503.634766 
	C3622.883301,3493.105713 3630.013428,3480.270508 3639.665283,3469.433105 
	C3677.377930,3427.087891 3709.807861,3380.800293 3741.890381,3334.217773 
	C3759.248291,3309.015381 3772.527832,3281.446533 3788.270264,3255.348633 
	C3806.499268,3225.126709 3821.741699,3193.445068 3837.436035,3161.984375 
	C3844.227295,3148.370361 3849.915527,3134.163086 3857.062500,3120.664062 
	C3858.589844,3117.778564 3859.280273,3114.458740 3860.461914,3111.379639 
	C3865.199219,3099.037842 3869.293945,3086.391113 3874.894287,3074.451904 
	C3884.493164,3053.987305 3891.465088,3032.584229 3899.090576,3011.402588 
	C3903.346436,2999.581055 3908.197998,2987.923096 3911.623535,2975.862793 
	C3922.470703,2937.674805 3933.823730,2899.582031 3943.010498,2860.983398 
	C3953.767578,2815.787598 3961.551025,2769.931885 3967.864502,2723.876709 
	C3972.010986,2693.628662 3974.493164,2663.218506 3977.124023,2632.798828 
	C3978.898926,2612.277100 3980.292725,2591.693604 3980.628662,2571.240723 
	C3981.786621,2500.767090 3981.080322,2430.356689 3972.669678,2360.118652 
	C3968.406982,2324.520752 3963.223877,2289.120361 3957.298828,2253.815674 
	C3951.039307,2216.517090 3942.828613,2179.615723 3932.343262,2143.229248 
	C3924.646973,2116.522461 3918.333252,2089.395996 3909.972168,2062.908203 
	C3902.017578,2037.708008 3892.339111,2013.044678 3883.137451,1988.249512 
	C3879.907471,1979.546021 3875.303711,1971.338745 3872.271484,1962.578247 
	C3865.769043,1943.793335 3859.527832,1924.947144 3849.169189,1907.801514 
	C3847.450928,1904.957642 3845.751221,1902.070923 3844.392822,1899.046875 
	C3835.435791,1879.110840 3827.733887,1858.509277 3817.420410,1839.307495 
	C3800.472412,1807.752930 3782.371338,1776.798950 3764.743652,1745.612305 
	C3749.720947,1719.034058 3731.289795,1694.356689 3713.985352,1669.099731 
	C3681.660400,1621.918579 3644.223633,1578.702515 3608.246582,1534.381226 
	C3595.328369,1518.466797 3580.346924,1504.198364 3565.978027,1489.500122 
	C3556.815186,1480.127686 3545.932861,1472.240723 3537.795898,1462.103027 
	C3523.101807,1443.795288 3503.656250,1430.714355 3487.685547,1413.879639 
	C3476.711426,1402.311523 3462.449951,1394.490845 3450.608887,1383.987183 
	C3410.690430,1348.577759 3367.656494,1317.319946 3323.849854,1287.070801 
	C3299.265381,1270.094727 3273.259277,1255.481201 3247.261963,1240.700073 
	C3214.335938,1221.979370 3181.164795,1203.861328 3147.292236,1186.985474 
	C3139.011963,1182.860107 3130.143311,1179.932373 3121.738037,1176.037354 
	C3105.477295,1168.501587 3089.872559,1159.181030 3073.049805,1153.313599 
	C3048.664551,1144.808350 3025.351807,1133.640503 3000.801514,1125.670776 
	C2985.711182,1120.771729 2970.693604,1115.643677 2955.569824,1110.851196 
	C2922.019775,1100.219727 2887.998535,1091.383667 2853.899414,1082.630127 
	C2799.767334,1068.733887 2744.839600,1059.838379 2689.616943,1052.414307 
	C2662.015381,1048.703735 2634.221680,1046.247437 2606.450928,1044.027222 
	C2585.286133,1042.335205 2564.010986,1040.936523 2542.801025,1041.135010 
	C2506.239258,1041.476929 2469.710693,1039.897217 2433.072998,1043.069702 
	C2405.351562,1045.470215 2377.495850,1046.809570 2349.729004,1049.386841 
	C2316.644043,1052.457886 2284.055176,1058.548584 2251.245605,1063.334717 
	C2203.825439,1070.252319 2157.399170,1081.731934 2111.379639,1094.276978 
	C2066.052490,1106.633179 2020.914185,1120.319702 1977.629761,1139.145142 
	C1968.514282,1143.109619 1959.459961,1147.365112 1950.035645,1150.439087 
	C1929.801392,1157.039185 1909.849487,1164.120483 1891.740356,1175.594238 
	C1889.499390,1177.014038 1887.037720,1178.110107 1884.611816,1179.209351 
	C1864.717407,1188.223022 1844.275879,1196.200928 1825.024658,1206.422485 
	C1795.147949,1222.286011 1766.153564,1239.807495 1736.678833,1256.429443 
	C1708.936401,1272.074097 1683.206665,1291.342163 1656.892700,1309.453735 
	C1609.769531,1341.887695 1566.727539,1379.548462 1522.545532,1415.713135 
	C1506.677368,1428.701782 1492.451660,1443.730835 1477.791748,1458.149414 
	C1468.444824,1467.342651 1460.483276,1478.092651 1450.473145,1486.431152 
	C1432.472534,1501.425659 1418.517700,1520.068115 1402.638062,1536.937500 
	C1390.422485,1549.914185 1380.211182,1564.753052 1368.654175,1578.378540 
	C1328.995483,1625.135132 1293.464966,1674.875977 1259.706787,1726.012695 
	C1246.476685,1746.053467 1237.157715,1768.133667 1224.359497,1788.269287 
	C1205.425171,1818.059082 1190.552979,1849.968994 1175.096069,1881.540894 
	C1168.398682,1895.220581 1162.509399,1909.327637 1155.374878,1922.830688 
	C1154.136230,1925.175049 1153.109009,1927.649170 1152.181519,1930.136963 
	C1147.337769,1943.130127 1143.485474,1956.586426 1137.573242,1969.069336 
	C1122.773560,2000.316772 1112.229980,2033.193237 1101.638306,2065.854248 
	C1088.385376,2106.721191 1077.231445,2148.358643 1067.995361,2190.398926 
	C1055.454346,2247.482910 1045.609375,2304.978516 1039.617432,2363.198242 
	C1035.944092,2398.888428 1032.677490,2434.612061 1031.793091,2470.398682 
	C1030.330322,2529.596924 1030.738770,2588.864746 1035.995972,2647.918945 
	C1040.230713,2695.487793 1046.159424,2742.895508 1055.309204,2789.795898 
	C1061.663574,2822.367920 1068.389160,2854.903564 1076.276245,2887.130371 
	C1083.816772,2917.940430 1092.295776,2948.575684 1101.819580,2978.828613 
	C1109.557495,3003.408203 1119.370605,3027.339355 1128.432129,3051.494873 
	C1132.158569,3061.428223 1136.732178,3071.055664 1140.206665,3081.069580 
	C1146.508423,3099.232422 1153.349976,3117.136230 1162.364868,3134.147461 
	C1164.232178,3137.671143 1166.547241,3140.978271 1168.188843,3144.597168 
	C1177.219116,3164.504150 1185.058594,3185.031494 1195.278076,3204.300537 
	C1211.754639,3235.367188 1229.599243,3265.724854 1246.922607,3296.327881 
	C1262.615479,3324.050293 1281.927734,3349.743896 1299.945312,3376.126221 
	C1332.196045,3423.350342 1369.845459,3466.370850 1405.752808,3510.727783 
	C1417.833984,3525.652344 1431.816650,3539.072998 1445.315186,3552.802490 
	C1454.519897,3562.164307 1465.248901,3570.130615 1473.784424,3580.025146 
	C1490.350342,3599.227783 1510.371948,3614.666992 1528.220093,3632.408447 
	C1538.696289,3642.821289 1551.570068,3649.898438 1562.383301,3659.616943 
	C1603.070190,3696.183105 1647.537231,3727.758545 1692.336792,3758.917725 
	C1718.544556,3777.145996 1746.789795,3791.927734 1774.284302,3808.012695 
	C1805.276123,3826.143066 1837.321045,3842.112549 1869.183472,3858.497070 
	C1876.222900,3862.116943 1883.992920,3864.287598 1891.197021,3867.621582 
	C1907.452393,3875.144287 1923.016724,3884.593506 1939.864624,3890.299316 
	C1964.327881,3898.584229 1987.477051,3910.098633 2012.074219,3917.892822 
	C2027.207397,3922.688477 2042.238770,3927.804199 2057.364990,3932.622070 
	C2090.884521,3943.298828 2124.854980,3952.249512 2158.956787,3960.942627 
	C2196.343750,3970.473389 2234.147217,3977.471680 2272.075195,3983.875488 
	C2297.545166,3988.176025 2323.343262,3990.626465 2349.045898,3993.433105 
	C2372.108887,3995.951660 2395.242432,3997.825684 2422.045410,3999.985840 
z"/>
<path fill="#FFFEFE" opacity="1.000000" stroke="none" 
	d="
M2420.195068,3999.985107 
	C2395.242432,3997.825684 2372.108887,3995.951660 2349.045898,3993.433105 
	C2323.343262,3990.626465 2297.545166,3988.176025 2272.075195,3983.875488 
	C2234.147217,3977.471680 2196.343750,3970.473389 2158.956787,3960.942627 
	C2124.854980,3952.249512 2090.884521,3943.298828 2057.364990,3932.622070 
	C2042.238770,3927.804199 2027.207397,3922.688477 2012.074219,3917.892822 
	C1987.477051,3910.098633 1964.327881,3898.584229 1939.864624,3890.299316 
	C1923.016724,3884.593506 1907.452393,3875.144287 1891.197021,3867.621582 
	C1883.992920,3864.287598 1876.222900,3862.116943 1869.183472,3858.497070 
	C1837.321045,3842.112549 1805.276123,3826.143066 1774.284302,3808.012695 
	C1746.789795,3791.927734 1718.544556,3777.145996 1692.336792,3758.917725 
	C1647.537231,3727.758545 1603.070190,3696.183105 1562.383301,3659.616943 
	C1551.570068,3649.898438 1538.696289,3642.821289 1528.220093,3632.408447 
	C1510.371948,3614.666992 1490.350342,3599.227783 1473.784424,3580.025146 
	C1465.248901,3570.130615 1454.519897,3562.164307 1445.315186,3552.802490 
	C1431.816650,3539.072998 1417.833984,3525.652344 1405.752808,3510.727783 
	C1369.845459,3466.370850 1332.196045,3423.350342 1299.945312,3376.126221 
	C1281.927734,3349.743896 1262.615479,3324.050293 1246.922607,3296.327881 
	C1229.599243,3265.724854 1211.754639,3235.367188 1195.278076,3204.300537 
	C1185.058594,3185.031494 1177.219116,3164.504150 1168.188843,3144.597168 
	C1166.547241,3140.978271 1164.232178,3137.671143 1162.364868,3134.147461 
	C1153.349976,3117.136230 1146.508423,3099.232422 1140.206665,3081.069580 
	C1136.732178,3071.055664 1132.158569,3061.428223 1128.432129,3051.494873 
	C1119.370605,3027.339355 1109.557495,3003.408203 1101.819580,2978.828613 
	C1092.295776,2948.575684 1083.816772,2917.940430 1076.276245,2887.130371 
	C1068.389160,2854.903564 1061.663574,2822.367920 1055.309204,2789.795898 
	C1046.159424,2742.895508 1040.230713,2695.487793 1035.995972,2647.918945 
	C1030.738770,2588.864746 1030.330322,2529.596924 1031.793091,2470.398682 
	C1032.677490,2434.612061 1035.944092,2398.888428 1039.617432,2363.198242 
	C1045.609375,2304.978516 1055.454346,2247.482910 1067.995361,2190.398926 
	C1077.231445,2148.358643 1088.385376,2106.721191 1101.638306,2065.854248 
	C1112.229980,2033.193237 1122.773560,2000.316772 1137.573242,1969.069336 
	C1143.485474,1956.586426 1147.337769,1943.130127 1152.181519,1930.136963 
	C1153.109009,1927.649170 1154.136230,1925.175049 1155.374878,1922.830688 
	C1162.509399,1909.327637 1168.398682,1895.220581 1175.096069,1881.540894 
	C1190.552979,1849.968994 1205.425171,1818.059082 1224.359497,1788.269287 
	C1237.157715,1768.133667 1246.476685,1746.053467 1259.706787,1726.012695 
	C1293.464966,1674.875977 1328.995483,1625.135132 1368.654175,1578.378540 
	C1380.211182,1564.753052 1390.422485,1549.914185 1402.638062,1536.937500 
	C1418.517700,1520.068115 1432.472534,1501.425659 1450.473145,1486.431152 
	C1460.483276,1478.092651 1468.444824,1467.342651 1477.791748,1458.149414 
	C1492.451660,1443.730835 1506.677368,1428.701782 1522.545532,1415.713135 
	C1566.727539,1379.548462 1609.769531,1341.887695 1656.892700,1309.453735 
	C1683.206665,1291.342163 1708.936401,1272.074097 1736.678833,1256.429443 
	C1766.153564,1239.807495 1795.147949,1222.286011 1825.024658,1206.422485 
	C1844.275879,1196.200928 1864.717407,1188.223022 1884.611816,1179.209351 
	C1887.037720,1178.110107 1889.499390,1177.014038 1891.740356,1175.594238 
	C1909.849487,1164.120483 1929.801392,1157.039185 1950.035645,1150.439087 
	C1959.459961,1147.365112 1968.514282,1143.109619 1977.629761,1139.145142 
	C2020.914185,1120.319702 2066.052490,1106.633179 2111.379639,1094.276978 
	C2157.399170,1081.731934 2203.825439,1070.252319 2251.245605,1063.334717 
	C2284.055176,1058.548584 2316.644043,1052.457886 2349.729004,1049.386841 
	C2377.495850,1046.809570 2405.351562,1045.470215 2433.072998,1043.069702 
	C2469.710693,1039.897217 2506.239258,1041.476929 2542.801025,1041.135010 
	C2564.010986,1040.936523 2585.286133,1042.335205 2606.450928,1044.027222 
	C2634.221680,1046.247437 2662.015381,1048.703735 2689.616943,1052.414307 
	C2744.839600,1059.838379 2799.767334,1068.733887 2853.899414,1082.630127 
	C2887.998535,1091.383667 2922.019775,1100.219727 2955.569824,1110.851196 
	C2970.693604,1115.643677 2985.711182,1120.771729 3000.801514,1125.670776 
	C3025.351807,1133.640503 3048.664551,1144.808350 3073.049805,1153.313599 
	C3089.872559,1159.181030 3105.477295,1168.501587 3121.738037,1176.037354 
	C3130.143311,1179.932373 3139.011963,1182.860107 3147.292236,1186.985474 
	C3181.164795,1203.861328 3214.335938,1221.979370 3247.261963,1240.700073 
	C3273.259277,1255.481201 3299.265381,1270.094727 3323.849854,1287.070801 
	C3367.656494,1317.319946 3410.690430,1348.577759 3450.608887,1383.987183 
	C3462.449951,1394.490845 3476.711426,1402.311523 3487.685547,1413.879639 
	C3503.656250,1430.714355 3523.101807,1443.795288 3537.795898,1462.103027 
	C3545.932861,1472.240723 3556.815186,1480.127686 3565.978027,1489.500122 
	C3580.346924,1504.198364 3595.328369,1518.466797 3608.246582,1534.381226 
	C3644.223633,1578.702515 3681.660400,1621.918579 3713.985352,1669.099731 
	C3731.289795,1694.356689 3749.720947,1719.034058 3764.743652,1745.612305 
	C3782.371338,1776.798950 3800.472412,1807.752930 3817.420410,1839.307495 
	C3827.733887,1858.509277 3835.435791,1879.110840 3844.392822,1899.046875 
	C3845.751221,1902.070923 3847.450928,1904.957642 3849.169189,1907.801514 
	C3859.527832,1924.947144 3865.769043,1943.793335 3872.271484,1962.578247 
	C3875.303711,1971.338745 3879.907471,1979.546021 3883.137451,1988.249512 
	C3892.339111,2013.044678 3902.017578,2037.708008 3909.972168,2062.908203 
	C3918.333252,2089.395996 3924.646973,2116.522461 3932.343262,2143.229248 
	C3942.828613,2179.615723 3951.039307,2216.517090 3957.298828,2253.815674 
	C3963.223877,2289.120361 3968.406982,2324.520752 3972.669678,2360.118652 
	C3981.080322,2430.356689 3981.786621,2500.767090 3980.628662,2571.240723 
	C3980.292725,2591.693604 3978.898926,2612.277100 3977.124023,2632.798828 
	C3974.493164,2663.218506 3972.010986,2693.628662 3967.864502,2723.876709 
	C3961.551025,2769.931885 3953.767578,2815.787598 3943.010498,2860.983398 
	C3933.823730,2899.582031 3922.470703,2937.674805 3911.623535,2975.862793 
	C3908.197998,2987.923096 3903.346436,2999.581055 3899.090576,3011.402588 
	C3891.465088,3032.584229 3884.493164,3053.987305 3874.894287,3074.451904 
	C3869.293945,3086.391113 3865.199219,3099.037842 3860.461914,3111.379639 
	C3859.280273,3114.458740 3858.589844,3117.778564 3857.062500,3120.664062 
	C3849.915527,3134.163086 3844.227295,3148.370361 3837.436035,3161.984375 
	C3821.741699,3193.445068 3806.499268,3225.126709 3788.270264,3255.348633 
	C3772.527832,3281.446533 3759.248291,3309.015381 3741.890381,3334.217773 
	C3709.807861,3380.800293 3677.377930,3427.087891 3639.665283,3469.433105 
	C3630.013428,3480.270508 3622.883301,3493.105713 3612.580811,3503.634766 
	C3594.989502,3521.612793 3580.049072,3542.146973 3560.254639,3558.028564 
	C3553.365723,3570.462158 3540.828613,3577.554688 3531.711914,3588.023193 
	C3519.133545,3602.466553 3504.846436,3615.693604 3489.959229,3627.803711 
	C3445.666748,3663.834473 3402.706055,3701.595703 3355.563232,3734.005127 
	C3329.233398,3752.106445 3303.556152,3771.483887 3275.774414,3787.056885 
	C3246.249756,3803.607422 3217.317627,3821.246338 3187.386475,3837.020996 
	C3168.102051,3847.184082 3147.718994,3855.260254 3127.850098,3864.319092 
	C3124.825195,3865.698242 3121.782227,3867.118164 3118.974121,3868.880615 
	C3101.395264,3879.913574 3082.024170,3886.603027 3062.437744,3892.972656 
	C3053.013916,3896.037354 3044.000732,3900.394531 3034.868652,3904.322510 
	C2991.544434,3922.959473 2946.454590,3936.663330 2901.150146,3949.048340 
	C2854.518555,3961.795898 2807.541748,3973.776367 2759.411865,3980.251709 
	C2733.131836,3983.787598 2707.105957,3989.422607 2680.765869,3992.250732 
	C2646.473389,3995.932373 2612.030518,3998.257080 2577.584229,4000.547852 
	C2537.596924,4003.206543 2497.713379,4001.475830 2457.796875,4002.224854 
	C2445.897705,4002.447754 2433.963623,4000.784668 2420.195068,3999.985107 
M1992.190796,1822.000000 
	C1992.190674,2237.297607 1992.190674,2652.595215 1992.190186,3067.892822 
	C1992.190186,3076.558838 1992.205078,3085.224609 1992.175171,3093.890625 
	C1992.152344,3100.528809 1992.243652,3107.011475 1989.155151,3113.401855 
	C1987.671875,3116.470947 1988.899536,3120.850342 1988.899536,3124.879639 
	C1997.297852,3127.695312 2005.351074,3126.577393 2013.248901,3126.578857 
	C2342.553711,3126.636230 2671.858643,3126.628662 3001.163574,3126.628906 
	C3005.163330,3126.628906 3009.174805,3126.816895 3013.159180,3126.567871 
	C3016.919678,3126.332520 3020.651367,3125.635986 3025.190918,3125.037598 
	C3025.425781,3117.240967 3025.796143,3110.686035 3025.796387,3104.130859 
	C3025.821045,2628.172119 3025.831787,2152.213135 3025.739258,1676.254395 
	C3025.736328,1661.765015 3027.973633,1647.005981 3021.581299,1632.978760 
	C3020.305664,1630.179077 3021.416992,1626.370605 3020.992432,1623.083496 
	C3020.489502,1619.187256 3019.781738,1615.274902 3018.693848,1611.505005 
	C3015.818848,1601.545044 3015.155029,1591.021851 3008.222168,1582.139771 
	C3005.470215,1578.614136 3007.768066,1571.999390 3001.310791,1569.083740 
	C2995.912598,1566.646118 2999.165771,1557.496338 2991.750732,1555.090088 
	C2986.335205,1553.332642 2990.071533,1545.327881 2984.161377,1542.105713 
	C2979.318604,1539.465576 2971.411865,1539.060791 2970.566406,1531.819824 
	C2969.544922,1523.066895 2960.682373,1527.483032 2957.132324,1522.581421 
	C2950.091553,1512.860718 2937.760986,1511.924072 2928.137451,1506.528198 
	C2916.872559,1500.212158 2905.444092,1500.034302 2893.462402,1500.035889 
	C2638.817871,1500.069336 2384.173096,1500.134521 2129.528809,1499.906494 
	C2110.668457,1499.889648 2093.316162,1502.048706 2075.857910,1510.901245 
	C2062.121338,1517.866455 2050.128662,1526.469360 2038.485474,1535.899780 
	C2019.840820,1551.001221 2009.713013,1571.953369 2001.967651,1593.886353 
	C1995.375854,1612.552979 1991.559570,1631.698730 1991.885742,1652.019287 
	C1992.773682,1707.333496 1992.190796,1762.671509 1992.190796,1822.000000 
M3118.397949,3207.373779 
	C3116.377686,3205.661377 3114.609863,3203.412354 3112.295898,3202.323730 
	C3097.190186,3195.216797 3081.317627,3191.805176 3064.516357,3191.809082 
	C2687.888184,3191.895264 2311.259766,3191.875000 1934.631592,3191.874756 
	C1928.664673,3191.874756 1922.697754,3191.874756 1918.481812,3191.874756 
	C1906.573486,3201.810547 1896.092041,3210.555908 1885.596924,3219.303223 
	C1885.117676,3223.250732 1885.788330,3227.885254 1883.923828,3231.004883 
	C1879.818115,3237.875000 1880.414307,3245.058838 1880.412598,3252.321045 
	C1880.391113,3342.978516 1880.384521,3433.635742 1880.433228,3524.293213 
	C1880.436035,3529.501221 1880.950684,3534.708740 1881.224365,3539.865723 
	C1889.486694,3544.170410 1897.626709,3542.452148 1905.431885,3542.453857 
	C2308.057373,3542.545654 2710.683105,3542.534912 3113.308594,3542.533936 
	C3117.308105,3542.533936 3121.327393,3542.765137 3125.301758,3542.446289 
	C3129.039062,3542.146240 3132.729492,3541.260498 3136.609131,3540.604248 
	C3136.995361,3536.787354 3137.479248,3534.195557 3137.485840,3531.602539 
	C3137.546143,3508.271484 3138.358887,3484.901123 3137.258545,3461.622070 
	C3136.385498,3443.149658 3137.787842,3424.602539 3134.145752,3406.123535 
	C3131.588867,3393.150146 3132.074463,3379.653564 3135.579102,3366.457031 
	C3137.088135,3360.775146 3137.401123,3354.650635 3137.434082,3348.722412 
	C3137.608643,3317.393311 3137.737549,3286.060303 3137.437500,3254.733154 
	C3137.275146,3237.771484 3132.259033,3222.318848 3118.397949,3207.373779 
z"/>
<path fill="#FE0101" opacity="1.000000" stroke="none" 
	d="
M1992.190796,1820.000000 
	C1992.190796,1762.671509 1992.773682,1707.333496 1991.885742,1652.019287 
	C1991.559570,1631.698730 1995.375854,1612.552979 2001.967651,1593.886353 
	C2009.713013,1571.953369 2019.840820,1551.001221 2038.485474,1535.899780 
	C2050.128662,1526.469360 2062.121338,1517.866455 2075.857910,1510.901245 
	C2093.316162,1502.048706 2110.668457,1499.889648 2129.528809,1499.906494 
	C2384.173096,1500.134521 2638.817871,1500.069336 2893.462402,1500.035889 
	C2905.444092,1500.034302 2916.872559,1500.212158 2928.137451,1506.528198 
	C2937.760986,1511.924072 2950.091553,1512.860718 2957.132324,1522.581421 
	C2960.682373,1527.483032 2969.544922,1523.066895 2970.566406,1531.819824 
	C2971.411865,1539.060791 2979.318604,1539.465576 2984.161377,1542.105713 
	C2990.071533,1545.327881 2986.335205,1553.332642 2991.750732,1555.090088 
	C2999.165771,1557.496338 2995.912598,1566.646118 3001.310791,1569.083740 
	C3007.768066,1571.999390 3005.470215,1578.614136 3008.222168,1582.139771 
	C3015.155029,1591.021851 3015.818848,1601.545044 3018.693848,1611.505005 
	C3019.781738,1615.274902 3020.489502,1619.187256 3020.992432,1623.083496 
	C3021.416992,1626.370605 3020.305664,1630.179077 3021.581299,1632.978760 
	C3027.973633,1647.005981 3025.736328,1661.765015 3025.739258,1676.254395 
	C3025.831787,2152.213135 3025.821045,2628.172119 3025.796387,3104.130859 
	C3025.796143,3110.686035 3025.425781,3117.240967 3025.190918,3125.037598 
	C3020.651367,3125.635986 3016.919678,3126.332520 3013.159180,3126.567871 
	C3009.174805,3126.816895 3005.163330,3126.628906 3001.163574,3126.628906 
	C2671.858643,3126.628662 2342.553711,3126.636230 2013.248901,3126.578857 
	C2005.351074,3126.577393 1997.297852,3127.695312 1988.899536,3124.879639 
	C1988.899536,3120.850342 1987.671875,3116.470947 1989.155151,3113.401855 
	C1992.243652,3107.011475 1992.152344,3100.528809 1992.175171,3093.890625 
	C1992.205078,3085.224609 1992.190186,3076.558838 1992.190186,3067.892822 
	C1992.190674,2652.595215 1992.190674,2237.297607 1992.190796,1820.000000 
M2607.009521,2116.900879 
	C2620.992188,2085.483887 2634.645996,2053.914795 2649.072754,2022.703125 
	C2658.807861,2001.641479 2669.612305,1981.144409 2678.533936,1959.618408 
	C2688.334961,1935.971313 2698.551025,1912.311035 2712.417969,1890.460083 
	C2715.546631,1885.529663 2722.045410,1879.490723 2717.210205,1872.391113 
	C2713.169678,1866.458374 2706.123047,1869.251099 2700.452881,1869.237061 
	C2628.461182,1869.058716 2556.468506,1869.120605 2484.476318,1869.112305 
	C2479.143799,1869.111694 2473.280762,1870.458496 2468.590576,1868.703369 
	C2459.110840,1865.156494 2450.708008,1867.501709 2441.475342,1870.729980 
	C2436.332764,1879.497925 2432.669922,1889.163086 2429.420898,1899.372070 
	C2425.266602,1912.426514 2420.960205,1925.520752 2416.178223,1938.402466 
	C2409.983643,1955.089111 2403.042725,1971.511719 2397.264160,1988.336914 
	C2386.990234,2018.251099 2377.723145,2048.482666 2365.958740,2077.917969 
	C2362.560791,2086.419678 2358.037842,2094.656494 2355.778809,2103.559814 
	C2350.098877,2125.947266 2338.767578,2146.373047 2333.885986,2169.064209 
	C2328.061523,2196.139893 2314.708252,2220.654053 2306.198975,2246.941895 
	C2296.326416,2277.440430 2283.010498,2306.884277 2273.056641,2337.539307 
	C2264.924072,2362.586182 2254.986084,2387.047852 2245.803467,2411.752197 
	C2237.574463,2433.891846 2229.284180,2456.008789 2220.798584,2478.730957 
	C2227.368164,2482.653809 2234.095215,2481.285400 2240.477051,2481.294922 
	C2298.470947,2481.382080 2356.464600,2481.299072 2414.458252,2481.397705 
	C2418.057861,2481.403809 2422.183350,2479.839844 2425.418945,2483.509033 
	C2423.215332,2488.016357 2419.865967,2491.750244 2420.193115,2497.605713 
	C2420.513916,2503.349854 2418.987793,2509.368652 2417.373535,2515.010010 
	C2414.843262,2523.852783 2411.400146,2532.429443 2408.630615,2541.209473 
	C2404.672363,2553.757324 2400.753906,2566.325684 2397.222900,2578.998291 
	C2393.353760,2592.882568 2390.177490,2606.960938 2386.268311,2620.833252 
	C2382.536865,2634.075195 2376.968750,2646.922852 2374.477295,2660.364502 
	C2369.436523,2687.561035 2359.174316,2713.183594 2352.282471,2739.801025 
	C2346.184082,2763.354248 2338.358154,2786.465332 2332.447266,2810.060303 
	C2326.080078,2835.477539 2321.318604,2861.307373 2310.131836,2885.276367 
	C2309.578125,2886.462646 2309.243164,2887.771240 2308.949219,2889.055664 
	C2303.373779,2913.416504 2296.730957,2937.448730 2287.662842,2960.784424 
	C2284.270996,2969.513916 2284.567139,2971.956543 2287.921143,2987.997559 
	C2289.629395,2986.981201 2291.673584,2986.452881 2292.551270,2985.143066 
	C2320.077637,2944.057617 2346.138916,2901.976318 2375.854492,2862.380127 
	C2390.545898,2842.804199 2404.571045,2822.677490 2418.399658,2802.573242 
	C2440.054443,2771.091309 2462.194824,2739.922607 2483.514893,2708.198975 
	C2496.766846,2688.480713 2510.596680,2669.149902 2524.219482,2649.682129 
	C2537.864990,2630.181641 2552.061035,2611.046143 2565.125244,2591.165283 
	C2578.893066,2570.214111 2593.062256,2549.575928 2607.986084,2529.444580 
	C2628.862549,2501.282471 2647.423096,2471.501953 2668.020996,2443.172607 
	C2676.217773,2431.899170 2683.427979,2420.056641 2691.389893,2408.688232 
	C2704.653320,2389.749756 2718.641357,2371.315186 2731.764648,2352.282959 
	C2750.893555,2324.541016 2767.754150,2295.182373 2790.934082,2270.351807 
	C2792.034424,2269.173096 2791.779785,2266.729248 2792.205811,2264.628906 
	C2786.063232,2259.845703 2779.157715,2261.880127 2772.780273,2261.866699 
	C2703.454590,2261.719482 2634.128418,2261.841309 2564.802979,2261.673096 
	C2557.667969,2261.655762 2550.153320,2263.574707 2543.521484,2259.592529 
	C2542.896729,2258.110107 2541.606689,2256.527588 2541.982666,2255.730225 
	C2563.348389,2210.426514 2582.891846,2164.267334 2607.009521,2116.900879 
z"/>
<path fill="#FE0202" opacity="1.000000" stroke="none" 
	d="
M3119.422852,3208.478760 
	C3132.259033,3222.318848 3137.275146,3237.771484 3137.437500,3254.733154 
	C3137.737549,3286.060303 3137.608643,3317.393311 3137.434082,3348.722412 
	C3137.401123,3354.650635 3137.088135,3360.775146 3135.579102,3366.457031 
	C3132.074463,3379.653564 3131.588867,3393.150146 3134.145752,3406.123535 
	C3137.787842,3424.602539 3136.385498,3443.149658 3137.258545,3461.622070 
	C3138.358887,3484.901123 3137.546143,3508.271484 3137.485840,3531.602539 
	C3137.479248,3534.195557 3136.995361,3536.787354 3136.609131,3540.604248 
	C3132.729492,3541.260498 3129.039062,3542.146240 3125.301758,3542.446289 
	C3121.327393,3542.765137 3117.308105,3542.533936 3113.308594,3542.533936 
	C2710.683105,3542.534912 2308.057373,3542.545654 1905.431885,3542.453857 
	C1897.626709,3542.452148 1889.486694,3544.170410 1881.224365,3539.865723 
	C1880.950684,3534.708740 1880.436035,3529.501221 1880.433228,3524.293213 
	C1880.384521,3433.635742 1880.391113,3342.978516 1880.412598,3252.321045 
	C1880.414307,3245.058838 1879.818115,3237.875000 1883.923828,3231.004883 
	C1885.788330,3227.885254 1885.117676,3223.250732 1885.603760,3219.302246 
	C1896.092041,3210.555908 1906.573486,3201.810547 1918.481812,3191.874756 
	C1922.697754,3191.874756 1928.664673,3191.874756 1934.631592,3191.874756 
	C2311.259766,3191.875000 2687.888184,3191.895264 3064.516357,3191.809082 
	C3081.317627,3191.805176 3097.190186,3195.216797 3112.295898,3202.323730 
	C3114.609863,3203.412354 3116.377686,3205.661377 3119.422852,3208.478760 
z"/>
<path fill="#FFFCFC" opacity="1.000000" stroke="none" 
	d="
M2606.370117,2118.278320 
	C2582.891846,2164.267334 2563.348389,2210.426514 2541.982666,2255.730225 
	C2541.606689,2256.527588 2542.896729,2258.110107 2543.521484,2259.592529 
	C2550.153320,2263.574707 2557.667969,2261.655762 2564.802979,2261.673096 
	C2634.128418,2261.841309 2703.454590,2261.719482 2772.780273,2261.866699 
	C2779.157715,2261.880127 2786.063232,2259.845703 2792.205811,2264.628906 
	C2791.779785,2266.729248 2792.034424,2269.173096 2790.934082,2270.351807 
	C2767.754150,2295.182373 2750.893555,2324.541016 2731.764648,2352.282959 
	C2718.641357,2371.315186 2704.653320,2389.749756 2691.389893,2408.688232 
	C2683.427979,2420.056641 2676.217773,2431.899170 2668.020996,2443.172607 
	C2647.423096,2471.501953 2628.862549,2501.282471 2607.986084,2529.444580 
	C2593.062256,2549.575928 2578.893066,2570.214111 2565.125244,2591.165283 
	C2552.061035,2611.046143 2537.864990,2630.181641 2524.219482,2649.682129 
	C2510.596680,2669.149902 2496.766846,2688.480713 2483.514893,2708.198975 
	C2462.194824,2739.922607 2440.054443,2771.091309 2418.399658,2802.573242 
	C2404.571045,2822.677490 2390.545898,2842.804199 2375.854492,2862.380127 
	C2346.138916,2901.976318 2320.077637,2944.057617 2292.551270,2985.143066 
	C2291.673584,2986.452881 2289.629395,2986.981201 2287.921143,2987.997559 
	C2284.567139,2971.956543 2284.270996,2969.513916 2287.662842,2960.784424 
	C2296.730957,2937.448730 2303.373779,2913.416504 2308.949219,2889.055664 
	C2309.243164,2887.771240 2309.578125,2886.462646 2310.131836,2885.276367 
	C2321.318604,2861.307373 2326.080078,2835.477539 2332.447266,2810.060303 
	C2338.358154,2786.465332 2346.184082,2763.354248 2352.282471,2739.801025 
	C2359.174316,2713.183594 2369.436523,2687.561035 2374.477295,2660.364502 
	C2376.968750,2646.922852 2382.536865,2634.075195 2386.268311,2620.833252 
	C2390.177490,2606.960938 2393.353760,2592.882568 2397.222900,2578.998291 
	C2400.753906,2566.325684 2404.672363,2553.757324 2408.630615,2541.209473 
	C2411.400146,2532.429443 2414.843262,2523.852783 2417.373535,2515.010010 
	C2418.987793,2509.368652 2420.513916,2503.349854 2420.193115,2497.605713 
	C2419.865967,2491.750244 2423.215332,2488.016357 2425.418945,2483.509033 
	C2422.183350,2479.839844 2418.057861,2481.403809 2414.458252,2481.397705 
	C2356.464600,2481.299072 2298.470947,2481.382080 2240.477051,2481.294922 
	C2234.095215,2481.285400 2227.368164,2482.653809 2220.798584,2478.730957 
	C2229.284180,2456.008789 2237.574463,2433.891846 2245.803467,2411.752197 
	C2254.986084,2387.047852 2264.924072,2362.586182 2273.056641,2337.539307 
	C2283.010498,2306.884277 2296.326416,2277.440430 2306.198975,2246.941895 
	C2314.708252,2220.654053 2328.061523,2196.139893 2333.885986,2169.064209 
	C2338.767578,2146.373047 2350.098877,2125.947266 2355.778809,2103.559814 
	C2358.037842,2094.656494 2362.560791,2086.419678 2365.958740,2077.917969 
	C2377.723145,2048.482666 2386.990234,2018.251099 2397.264160,1988.336914 
	C2403.042725,1971.511719 2409.983643,1955.089111 2416.178223,1938.402466 
	C2420.960205,1925.520752 2425.266602,1912.426514 2429.420898,1899.372070 
	C2432.669922,1889.163086 2436.332764,1879.497925 2441.475342,1870.729980 
	C2450.708008,1867.501709 2459.110840,1865.156494 2468.590576,1868.703369 
	C2473.280762,1870.458496 2479.143799,1869.111694 2484.476318,1869.112305 
	C2556.468506,1869.120605 2628.461182,1869.058716 2700.452881,1869.237061 
	C2706.123047,1869.251099 2713.169678,1866.458374 2717.210205,1872.391113 
	C2722.045410,1879.490723 2715.546631,1885.529663 2712.417969,1890.460083 
	C2698.551025,1912.311035 2688.334961,1935.971313 2678.533936,1959.618408 
	C2669.612305,1981.144409 2658.807861,2001.641479 2649.072754,2022.703125 
	C2634.645996,2053.914795 2620.992188,2085.483887 2606.370117,2118.278320 
z"/>
</svg>